<mxfile host="app.diagrams.net" modified="2024-03-03T12:58:56.457Z" agent="Mozilla/5.0 (Windows NT 10.0; Win64; x64; rv:123.0) Gecko/20100101 Firefox/123.0" version="23.1.8" etag="fC99BQF8rB0CDuCwT0w7" type="github">
  <diagram name="Page-1" id="egL6abf3S4Py0Ko2SIji">
    <mxGraphModel>
      <root>
        <mxCell id="0" />
        <mxCell id="1" parent="0" />
      </root>
    </mxGraphModel>
  </diagram>
</mxfile>
